<svg id="Layer_1" enable-background="new 0 0 100 100" height="512" viewBox="0 0 100 100" width="512" xmlns="http://www.w3.org/2000/svg"><path d="m87 24h-62c-4.4 0-8 3.6-8 8v3c0 1.1.9 2 2 2s2-.9 2-2v-3c0-.4.1-.8.2-1.2l22.4 19.2-22.4 19.2c-.1-.4-.2-.8-.2-1.2v-3c0-1.1-.9-2-2-2s-2 .9-2 2v3c0 4.4 3.6 8 8 8h62c4.4 0 8-3.6 8-8v-36c0-4.4-3.6-8-8-8zm-62.8 4.1c.2-.1.5-.1.8-.1h62c.3 0 .6 0 .8.1l-30.5 26.1c-.8.6-1.8.6-2.6 0zm62.8 43.9h-62c-.3 0-.6 0-.8-.1l22.5-19.3 5.4 4.7c1.1 1 2.5 1.5 3.9 1.5s2.8-.5 3.9-1.5l5.4-4.7 22.5 19.3c-.2.1-.5.1-.8.1zm4-4c0 .4-.1.8-.2 1.2l-22.4-19.2 22.4-19.2c.1.4.2.8.2 1.2zm-80-23c0-1.1.9-2 2-2h12c1.1 0 2 .9 2 2s-.9 2-2 2h-12c-1.1 0-2-.9-2-2zm14 12h-18c-1.1 0-2-.9-2-2s.9-2 2-2h18c1.1 0 2 .9 2 2s-.9 2-2 2z"/></svg>