<svg width="100%" height="100%" viewBox="0 0 114 25" xmlns="http://www.w3.org/2000/svg">
	<path
		d="M22.9001 19.2999C23.2001 19.2999 23.5001 19.1999 23.8001 19.0999C24.1001 18.9999 24.2001 18.6999 24.4001 18.4999C24.6001 18.2999 24.7001 17.9999 24.7001 17.5999C24.7001 17.1999 24.8001 16.8999 24.8001 16.5999V11.0999H27.8001V16.5999C27.8001 17.2999 27.7001 18.0999 27.5001 18.6999C27.3001 19.3999 27.0001 19.8999 26.6001 20.3999C26.2001 20.8999 25.7001 21.2999 25.1001 21.4999C24.5001 21.7999 23.8001 21.8999 22.9001 21.8999C22.0001 21.8999 21.3001 21.7999 20.7001 21.4999C20.1001 21.1999 19.6001 20.7999 19.2001 20.2999C18.8001 19.7999 18.5001 19.1999 18.3001 18.5999C18.1001 17.9999 18.0001 17.2999 18.0001 16.5999V11.0999H21.0001V16.5999C21.0001 16.9999 21.0001 17.2999 21.1001 17.5999C21.2001 17.8999 21.3001 18.1999 21.4001 18.4999C21.6001 18.6999 21.7001 18.8999 22.0001 19.0999C22.2001 19.1999 22.5001 19.2999 22.9001 19.2999Z"
		fill="black" />
	<path
		d="M38.6001 19.0999C38.6001 19.5999 38.5001 19.9999 38.3001 20.3999C38.1001 20.6999 37.8001 20.9999 37.5001 21.2999C37.1001 21.4999 36.7001 21.6999 36.3001 21.7999C35.8001 21.8999 35.3001 21.9999 34.8001 21.9999H29.5001V11.0999H35.8001C36.2001 11.0999 36.5001 11.1999 36.8001 11.2999C37.1001 11.4999 37.4001 11.6999 37.6001 11.8999C37.8001 12.1999 38.0001 12.4999 38.1001 12.7999C38.2001 13.0999 38.3001 13.4999 38.3001 13.7999C38.3001 14.2999 38.2001 14.7999 37.9001 15.2999C37.6001 15.7999 37.3001 16.0999 36.7001 16.2999C37.3001 16.4999 37.8001 16.7999 38.2001 17.1999C38.4001 17.6999 38.6001 18.2999 38.6001 19.0999ZM32.4001 13.5999V15.2999H34.4001C34.6001 15.2999 34.8001 15.1999 35.0001 15.0999C35.2001 14.9999 35.3001 14.7999 35.3001 14.3999C35.3001 14.0999 35.2001 13.8999 35.1001 13.7999C35.0001 13.6999 34.8001 13.5999 34.6001 13.5999H32.4001ZM35.6001 18.4999C35.6001 18.1999 35.5001 17.9999 35.4001 17.7999C35.3001 17.5999 35.1001 17.4999 34.9001 17.4999H32.5001V19.2999H34.8001C35.0001 19.2999 35.2001 19.1999 35.4001 19.0999C35.5001 18.9999 35.6001 18.7999 35.6001 18.4999Z"
		fill="black" />
	<path
		d="M39.9001 21.8999V11.0999H44.0001C44.9001 11.0999 45.7001 11.1999 46.4001 11.4999C47.1001 11.7999 47.6001 12.1999 48.1001 12.6999C48.6001 13.1999 48.9001 13.7999 49.1001 14.3999C49.3001 15.0999 49.4001 15.6999 49.4001 16.4999C49.4001 17.2999 49.3001 18.0999 49.0001 18.6999C48.7001 19.3999 48.4001 19.8999 47.9001 20.3999C47.4001 20.8999 46.9001 21.1999 46.2001 21.4999C45.5001 21.7999 44.8001 21.8999 44.0001 21.8999H39.9001ZM46.5001 16.3999C46.5001 15.9999 46.4001 15.5999 46.3001 15.2999C46.2001 14.9999 46.0001 14.6999 45.8001 14.3999C45.6001 14.1999 45.3001 13.9999 45.0001 13.7999C44.7001 13.6999 44.4001 13.5999 44.0001 13.5999H42.8001V19.1999H44.0001C44.4001 19.1999 44.7001 19.0999 45.0001 18.9999C45.3001 18.8999 45.6001 18.6999 45.8001 18.3999C46.0001 18.0999 46.2001 17.7999 46.3001 17.4999C46.5001 17.1999 46.5001 16.8999 46.5001 16.3999Z"
		fill="black" />
	<path
		d="M53.2001 11.0999H55.9001L59.6001 21.8999H56.6001L55.9001 19.7999H53.0001L52.4001 21.8999H49.4001L53.2001 11.0999ZM55.5001 17.7999L54.5001 14.4999L53.5001 17.7999H55.5001Z"
		fill="black" />
	<path
		d="M61.0001 21.8999V11.0999H64.6001C65.5001 11.0999 66.2001 11.1999 66.8001 11.4999C67.4001 11.7999 68.0001 12.1999 68.4001 12.6999C68.8001 13.1999 69.1001 13.7999 69.4001 14.3999C69.6001 15.0999 69.7001 15.6999 69.7001 16.4999C69.7001 17.2999 69.6001 18.0999 69.3001 18.6999C69.1001 19.3999 68.7001 19.8999 68.3001 20.3999C67.9001 20.8999 67.3001 21.1999 66.7001 21.4999C66.1001 21.7999 65.4001 21.8999 64.6001 21.8999H61.0001ZM68.9001 16.3999C68.9001 15.6999 68.8001 15.0999 68.6001 14.4999C68.4001 13.8999 68.1001 13.3999 67.8001 12.9999C67.5001 12.5999 67.0001 12.2999 66.4001 11.9999C65.9001 11.7999 65.2001 11.6999 64.5001 11.6999H61.7001V21.0999H64.5001C65.2001 21.0999 65.8001 20.9999 66.4001 20.6999C66.9001 20.4999 67.4001 20.0999 67.8001 19.6999C68.2001 19.2999 68.4001 18.7999 68.6001 18.1999C68.8001 17.6999 68.9001 17.0999 68.9001 16.3999Z"
		fill="black" />
	<path d="M79 21.1999V21.8999H71.8V11.0999H78.8V11.7999H72.5V15.9999H78V16.6999H72.5V21.1999H79Z"
		fill="black" />
	<path
		d="M87.2 12.8999C86.5 12.0999 85.5 11.6999 84.2 11.6999C83.1 11.6999 82.4 11.8999 81.9 12.2999C81.4 12.6999 81.2 13.1999 81.2 13.8999C81.2 14.1999 81.3 14.4999 81.4 14.7999C81.5 14.9999 81.7 15.1999 82 15.3999C82.3 15.5999 82.6 15.6999 83 15.7999C83.4 15.8999 83.9 15.9999 84.4 16.0999C85 16.1999 85.5 16.3999 86 16.4999C86.5 16.5999 86.9 16.7999 87.2 17.0999C87.5 17.2999 87.8 17.5999 88 17.8999C88.2 18.1999 88.3 18.5999 88.3 19.0999C88.3 19.5999 88.2 19.9999 88 20.2999C87.8 20.6999 87.5 20.9999 87.2 21.1999C86.9 21.3999 86.5 21.5999 86 21.6999C85.5 21.7999 85 21.8999 84.4 21.8999C82.7 21.8999 81.3 21.3999 80.1 20.2999L80.5 19.6999C81 20.1999 81.5 20.5999 82.2 20.7999C82.9 21.0999 83.6 21.1999 84.4 21.1999C85.3 21.1999 86.1 20.9999 86.6 20.6999C87.1 20.3999 87.4 19.7999 87.4 19.0999C87.4 18.6999 87.3 18.3999 87.2 18.1999C87.1 17.9999 86.8 17.6999 86.6 17.5999C86.4 17.4999 86 17.2999 85.5 17.0999C85.1 16.9999 84.6 16.7999 84 16.6999C83.4 16.5999 82.9 16.3999 82.5 16.2999C82.1 16.1999 81.7 15.9999 81.4 15.7999C81.1 15.5999 80.9 15.2999 80.7 14.9999C80.5 14.6999 80.5 14.2999 80.5 13.8999C80.5 13.3999 80.6 12.9999 80.8 12.5999C81 12.1999 81.2 11.8999 81.6 11.6999C81.9 11.3999 82.3 11.1999 82.8 11.0999C83.3 10.9999 83.8 10.8999 84.3 10.8999C85 10.8999 85.6 10.9999 86.2 11.1999C86.7 11.3999 87.2 11.6999 87.7 12.0999L87.2 12.8999Z"
		fill="black" />
	<path d="M90.1 21.8999V11.0999H90.9V21.8999H90.1Z" fill="black" />
	<path
		d="M101.6 20.1999C100.6 21.3999 99.3001 21.9999 98.0001 21.9999C97.3001 21.9999 96.6001 21.7999 96.0001 21.4999C95.4001 21.1999 94.8001 20.7999 94.4001 20.2999C94.0001 19.7999 93.6001 19.1999 93.4001 18.4999C93.1001 17.7999 93.0001 17.1999 93.0001 16.4999C93.0001 15.7999 93.1001 15.0999 93.4001 14.3999C93.6001 13.6999 94.0001 13.1999 94.4001 12.6999C94.8001 12.1999 95.4001 11.7999 96.0001 11.4999C96.6001 11.1999 97.3001 11.0999 98.0001 11.0999C98.5001 11.0999 99.0001 11.1999 99.5001 11.2999C99.9001 11.3999 100.3 11.5999 100.7 11.7999C101 11.9999 101.3 12.2999 101.6 12.4999C101.8 12.7999 102.1 13.0999 102.2 13.3999L101.6 13.7999C101.2 13.0999 100.8 12.5999 100.1 12.2999C99.5001 11.9999 98.8001 11.7999 98.1001 11.7999C97.5001 11.7999 96.9001 11.8999 96.4001 12.1999C95.9001 12.4999 95.4001 12.7999 95.1001 13.2999C94.7001 13.6999 94.5001 14.2999 94.3001 14.7999C94.1001 15.3999 94.0001 15.8999 94.0001 16.4999C94.0001 17.0999 94.1001 17.6999 94.3001 18.2999C94.5001 18.8999 94.8001 19.3999 95.2001 19.7999C95.6001 20.1999 96.0001 20.5999 96.6001 20.7999C97.1001 21.0999 97.7001 21.1999 98.3001 21.1999C99.0001 21.1999 99.6001 20.9999 100.2 20.6999C100.8 20.3999 101.4 19.8999 101.9 19.2999V17.1999H99.5001V16.5999H102.6V21.7999H101.9V20.1999H101.6Z"
		fill="black" />
	<path
		d="M105.3 12.4999V21.7999H104.5V11.0999H105.1L112.7 20.5999V11.0999H113.5V21.8999H112.8L105.3 12.4999Z"
		fill="black" />
	<path
		d="M13.7 17.7C12.2 15.2 3.60005 14.2 0.900046 12.3C0.100046 11.7 4.62532e-05 10.9 0.700046 9.99996C3.70005 5.79996 12.2 1.79996 16.4 0.999956C17.8 0.699956 20.3 1.09996 19.1 3.19996C18.5 4.29996 16.4 6.19996 15.4 7.09996C14.8 6.59996 18.1 2.99996 18.7 2.19996C14.2 1.19996 1.60005 8.79996 1.10005 11.8C5.30005 13.7 10.6 13.5 14 17C14.4 17.5 14.8 17.9 16.5 18C16.8 18 16.6 18.4 16.8 18.7L14.9 18.6C14.5 26.6 -3.59995 24.6 4.60005 20.1C6.60005 19 8.80005 18.5 11 18.1L13.7 17.7ZM13.7 18.6C11.1 19 4.90005 19.9 3.50005 22.4C6.20005 23.4 13 21.9 13.7 18.6Z"
		fill="black" />
</svg>