<svg version="1.1" id="Layer_1" xmlns="http://www.w3.org/2000/svg"
	xmlns:xlink="http://www.w3.org/1999/xlink" x="0px" y="0px"
	viewBox="0 0 141.7 56.7" style="enable-background:new 0 0 141.7 56.7;" xml:space="preserve">
<g>
	<g>
		<path class="st0" d="M36.9,35.3c0.3,0,0.6-0.1,0.9-0.2s0.4-0.4,0.6-0.6c0.2-0.2,0.3-0.5,0.3-0.9s0.1-0.7,0.1-1v-5.5h3v5.5
			c0,0.7-0.1,1.5-0.3,2.1c-0.2,0.7-0.5,1.2-0.9,1.7c-0.4,0.5-0.9,0.9-1.5,1.1c-0.6,0.3-1.3,0.4-2.2,0.4c-0.9,0-1.6-0.1-2.2-0.4
			c-0.6-0.3-1.1-0.7-1.5-1.2c-0.4-0.5-0.7-1.1-0.9-1.7c-0.2-0.6-0.3-1.3-0.3-2v-5.5h3v5.5c0,0.4,0,0.7,0.1,1
			c0.1,0.3,0.2,0.6,0.3,0.9c0.2,0.2,0.3,0.4,0.6,0.6C36.2,35.2,36.5,35.3,36.9,35.3z"/>
		<path class="st0" d="M52.6,35.1c0,0.5-0.1,0.9-0.3,1.3c-0.2,0.3-0.5,0.6-0.8,0.9c-0.4,0.2-0.8,0.4-1.2,0.5c-0.5,0.1-1,0.2-1.5,0.2
			h-5.3V27.1h6.3c0.4,0,0.7,0.1,1,0.2c0.3,0.2,0.6,0.4,0.8,0.6c0.2,0.3,0.4,0.6,0.5,0.9c0.1,0.3,0.2,0.7,0.2,1c0,0.5-0.1,1-0.4,1.5
			c-0.3,0.5-0.6,0.8-1.2,1c0.6,0.2,1.1,0.5,1.5,0.9C52.4,33.7,52.6,34.3,52.6,35.1z M46.4,29.6v1.7h2c0.2,0,0.4-0.1,0.6-0.2
			c0.2-0.1,0.3-0.3,0.3-0.7c0-0.3-0.1-0.5-0.2-0.6c-0.1-0.1-0.3-0.2-0.5-0.2H46.4z M49.6,34.5c0-0.3-0.1-0.5-0.2-0.7
			c-0.1-0.2-0.3-0.3-0.5-0.3h-2.4v1.8h2.3c0.2,0,0.4-0.1,0.6-0.2C49.5,35,49.6,34.8,49.6,34.5z"/>
		<path class="st0" d="M53.9,37.9V27.1h4.1c0.9,0,1.7,0.1,2.4,0.4c0.7,0.3,1.2,0.7,1.7,1.2c0.5,0.5,0.8,1.1,1,1.7
			c0.2,0.7,0.3,1.3,0.3,2.1c0,0.8-0.1,1.6-0.4,2.2c-0.3,0.7-0.6,1.2-1.1,1.7c-0.5,0.5-1,0.8-1.7,1.1c-0.7,0.3-1.4,0.4-2.2,0.4H53.9z
			 M60.5,32.4c0-0.4-0.1-0.8-0.2-1.1c-0.1-0.3-0.3-0.6-0.5-0.9c-0.2-0.2-0.5-0.4-0.8-0.6c-0.3-0.1-0.6-0.2-1-0.2h-1.2v5.6h1.2
			c0.4,0,0.7-0.1,1-0.2c0.3-0.1,0.6-0.3,0.8-0.6c0.2-0.3,0.4-0.6,0.5-0.9C60.5,33.2,60.5,32.9,60.5,32.4z"/>
		<path class="st0" d="M67.2,27.1h2.7l3.7,10.8h-3l-0.7-2.1h-2.9l-0.6,2.1h-3L67.2,27.1z M69.5,33.8l-1-3.3l-1,3.3H69.5z"/>
		<path class="st0" d="M75,37.9V27.1h3.6c0.9,0,1.6,0.1,2.2,0.4c0.6,0.3,1.2,0.7,1.6,1.2c0.4,0.5,0.7,1.1,1,1.7
			c0.2,0.7,0.3,1.3,0.3,2.1c0,0.8-0.1,1.6-0.4,2.2c-0.2,0.7-0.6,1.2-1,1.7c-0.4,0.5-1,0.8-1.6,1.1c-0.6,0.3-1.3,0.4-2.1,0.4H75z
			 M82.9,32.4c0-0.7-0.1-1.3-0.3-1.9c-0.2-0.6-0.5-1.1-0.8-1.5s-0.8-0.7-1.4-1c-0.5-0.2-1.2-0.3-1.9-0.3h-2.8v9.4h2.8
			c0.7,0,1.3-0.1,1.9-0.4c0.5-0.2,1-0.6,1.4-1s0.6-0.9,0.8-1.5C82.8,33.7,82.9,33.1,82.9,32.4z"/>
		<path class="st0" d="M93,37.2v0.7h-7.2V27.1h7v0.7h-6.3V32h5.5v0.7h-5.5v4.5H93z"/>
		<path class="st0" d="M101.2,28.9c-0.7-0.8-1.7-1.2-3-1.2c-1.1,0-1.8,0.2-2.3,0.6c-0.5,0.4-0.7,0.9-0.7,1.6c0,0.3,0.1,0.6,0.2,0.9
			c0.1,0.2,0.3,0.4,0.6,0.6c0.3,0.2,0.6,0.3,1,0.4c0.4,0.1,0.9,0.2,1.4,0.3c0.6,0.1,1.1,0.3,1.6,0.4c0.5,0.1,0.9,0.3,1.2,0.6
			c0.3,0.2,0.6,0.5,0.8,0.8c0.2,0.3,0.3,0.7,0.3,1.2s-0.1,0.9-0.3,1.2c-0.2,0.4-0.5,0.7-0.8,0.9c-0.3,0.2-0.7,0.4-1.2,0.5
			c-0.5,0.1-1,0.2-1.6,0.2c-1.7,0-3.1-0.5-4.3-1.6l0.4-0.6c0.5,0.5,1,0.9,1.7,1.1c0.7,0.3,1.4,0.4,2.2,0.4c0.9,0,1.7-0.2,2.2-0.5
			c0.5-0.3,0.8-0.9,0.8-1.6c0-0.4-0.1-0.7-0.2-0.9c-0.1-0.2-0.4-0.5-0.6-0.6s-0.6-0.3-1.1-0.5c-0.4-0.1-0.9-0.3-1.5-0.4
			c-0.6-0.1-1.1-0.3-1.5-0.4c-0.4-0.1-0.8-0.3-1.1-0.5c-0.3-0.2-0.5-0.5-0.7-0.8c-0.2-0.3-0.2-0.7-0.2-1.1c0-0.5,0.1-0.9,0.3-1.3
			s0.4-0.7,0.8-0.9c0.3-0.3,0.7-0.5,1.2-0.6c0.5-0.1,1-0.2,1.5-0.2c0.7,0,1.3,0.1,1.9,0.3c0.5,0.2,1,0.5,1.5,0.9L101.2,28.9z"/>
		<path class="st0" d="M104.1,37.9V27.1h0.8v10.8H104.1z"/>
		<path class="st0" d="M115.6,36.2c-1,1.2-2.3,1.8-3.6,1.8c-0.7,0-1.4-0.2-2-0.5c-0.6-0.3-1.2-0.7-1.6-1.2c-0.4-0.5-0.8-1.1-1-1.8
			c-0.3-0.7-0.4-1.3-0.4-2c0-0.7,0.1-1.4,0.4-2.1c0.2-0.7,0.6-1.2,1-1.7c0.4-0.5,1-0.9,1.6-1.2c0.6-0.3,1.3-0.4,2-0.4
			c0.5,0,1,0.1,1.5,0.2c0.4,0.1,0.8,0.3,1.2,0.5c0.3,0.2,0.6,0.5,0.9,0.7c0.2,0.3,0.5,0.6,0.6,0.9l-0.6,0.4
			c-0.4-0.7-0.8-1.2-1.5-1.5c-0.6-0.3-1.3-0.5-2-0.5c-0.6,0-1.2,0.1-1.7,0.4c-0.5,0.3-1,0.6-1.3,1.1c-0.4,0.4-0.6,1-0.8,1.5
			c-0.2,0.6-0.3,1.1-0.3,1.7c0,0.6,0.1,1.2,0.3,1.8c0.2,0.6,0.5,1.1,0.9,1.5c0.4,0.4,0.8,0.8,1.4,1c0.5,0.3,1.1,0.4,1.7,0.4
			c0.7,0,1.3-0.2,1.9-0.5c0.6-0.3,1.2-0.8,1.7-1.4v-2.1h-2.4v-0.6h3.1v5.2h-0.7V36.2z"/>
		<path class="st0" d="M119.3,28.5v9.3h-0.8V27.1h0.6l7.6,9.5v-9.5h0.8v10.8h-0.7L119.3,28.5z"/>
	</g>
	<g>
		<path class="st0" d="M27.7,33.7c-1.5-2.5-10.1-3.5-12.8-5.4c-0.8-0.6-0.9-1.4-0.2-2.3c3-4.2,11.5-8.2,15.7-9
			c1.4-0.3,3.9,0.1,2.7,2.2c-0.6,1.1-2.7,3-3.7,3.9c-0.6-0.5,2.7-4.1,3.3-4.9c-4.5-1-17.1,6.6-17.6,9.6c4.2,1.9,9.5,1.7,12.9,5.2
			c0.4,0.5,0.8,0.9,2.5,1c0.3,0,0.1,0.4,0.3,0.7l-1.9-0.1c-0.4,8-18.5,6-10.3,1.5c2-1.1,4.2-1.6,6.4-2L27.7,33.7z M27.7,34.6
			c-2.6,0.4-8.8,1.3-10.2,3.8C20.2,39.4,27,37.9,27.7,34.6z"/>
	</g>
</g>
</svg>