<svg width="100%" height="100%" viewBox="0 0 20 24" fill="none" xmlns="http://www.w3.org/2000/svg">
  <path
    d="M13.4681 16.7884C11.9681 14.2884 3.36812 13.2884 0.668112 11.3884C-0.131888 10.7884 -0.231887 9.98838 0.468112 9.08834C3.46812 4.88834 11.9681 0.888338 16.1681 0.0883343C17.5681 -0.211666 20.0681 0.188339 18.8681 2.28834C18.2681 3.38834 16.1681 5.28834 15.1681 6.18834C14.5681 5.68834 17.8681 2.08834 18.4681 1.28834C13.9681 0.288338 1.36812 7.88834 0.868116 10.8884C5.06812 12.7884 10.3681 12.5884 13.7681 16.0884C14.1681 16.5884 14.5681 16.9884 16.2681 17.0884C16.5681 17.0884 16.3681 17.4884 16.5681 17.7884L14.6681 17.6884C14.2681 25.6884 -3.83188 23.6884 4.36812 19.1884C6.36812 18.0884 8.56812 17.5884 10.7681 17.1884L13.4681 16.7884ZM13.4681 17.6884C10.8681 18.0884 4.66812 18.9884 3.26812 21.4884C5.96812 22.4884 12.7681 20.9884 13.4681 17.6884Z"
    fill="white" />
</svg>